<svg xmlns="http://www.w3.org/2000/svg" width="20" height="20" fill="none"><path fill="#1D1B20" d="M17.5 11.667a.836.836 0 0 0-.833-.834H15V12.5h1.667a.836.836 0 0 0 .833-.833ZM16.667 14.167H15v1.666h1.667A.836.836 0 0 0 17.5 15a.836.836 0 0 0-.833-.833ZM10 11.667H8.333V15H10c0 .917.75 1.667 1.667 1.667h2.5V10h-2.5C10.75 10 10 10.75 10 11.667Z"/><path fill="#1D1B20" d="M4.167 10.833c0-.916.75-1.666 1.666-1.666h1.25A2.92 2.92 0 0 0 10 6.25a2.92 2.92 0 0 0-2.917-2.917H4.167a.836.836 0 0 0-.834.834c0 .458.375.833.834.833h2.916c.692 0 1.25.558 1.25 1.25S7.775 7.5 7.083 7.5h-1.25a3.332 3.332 0 1 0 0 6.667H7.5V12.5H5.833c-.916 0-1.666-.75-1.666-1.667Z"/></svg>