<svg xmlns="http://www.w3.org/2000/svg" width="20" height="20" fill="none"><path stroke="#1D1B20" stroke-linecap="round" stroke-linejoin="round" stroke-width="1.5" d="M18.333 17.5v-1.667a3.335 3.335 0 0 0-2.5-3.228m-2.916-9.863a3.334 3.334 0 0 1 0 6.182m1.25 8.576c0-1.553 0-2.33-.254-2.942a3.333 3.333 0 0 0-1.804-1.804c-.613-.254-1.39-.254-2.942-.254h-2.5c-1.554 0-2.33 0-2.943.254a3.334 3.334 0 0 0-1.804 1.804c-.253.612-.253 1.389-.253 2.942M11.25 5.833a3.333 3.333 0 1 1-6.667 0 3.333 3.333 0 0 1 6.667 0Z"/></svg>