<svg width="20" height="20" viewBox="0 0 20 20" fill="none" xmlns="http://www.w3.org/2000/svg">
<path d="M18.3334 4.31666L8.82508 13.8333L5.29175 10.3L6.46675 9.12499L8.82508 11.4833L17.1584 3.14999L18.3334 4.31666ZM16.4917 8.51666C16.6001 8.99166 16.6667 9.49166 16.6667 9.99999C16.6667 13.6833 13.6834 16.6667 10.0001 16.6667C6.31675 16.6667 3.33341 13.6833 3.33341 9.99999C3.33341 6.31666 6.31675 3.33332 10.0001 3.33332C11.3167 3.33332 12.5334 3.71666 13.5667 4.37499L14.7667 3.17499C13.4167 2.22499 11.7751 1.66666 10.0001 1.66666C5.40008 1.66666 1.66675 5.39999 1.66675 9.99999C1.66675 14.6 5.40008 18.3333 10.0001 18.3333C14.6001 18.3333 18.3334 14.6 18.3334 9.99999C18.3334 9.00832 18.1501 8.05832 17.8334 7.17499L16.4917 8.51666Z" fill="#1D1B20"/>
</svg>
